<svg width="20" height="20" viewBox="0 0 20 20" fill="none" xmlns="http://www.w3.org/2000/svg">
<rect x="0.5" y="0.5" width="19" height="19" rx="9.5" fill="white"/>
<rect x="0.5" y="0.5" width="19" height="19" rx="9.5" stroke="black"/>
<path fill-rule="evenodd" clip-rule="evenodd" d="M5.04234 7.42985L4.75814 8.56666H3.2998C3.02366 8.56666 2.7998 8.79053 2.7998 9.06666C2.7998 9.34279 3.02366 9.56666 3.2998 9.56666H16.6331C16.9093 9.56666 17.1331 9.34279 17.1331 9.06666C17.1331 8.79053 16.9093 8.56666 16.6331 8.56666H15.1748L14.8906 7.42985C14.5268 5.97473 14.3449 5.24717 13.8024 4.82358C13.2599 4.39999 12.5099 4.39999 11.01 4.39999H8.92294C7.423 4.39999 6.67306 4.39999 6.13053 4.82358C5.58801 5.24717 5.40612 5.97473 5.04234 7.42985ZM6.2998 15.7333C7.38191 15.7333 8.29198 14.9967 8.55592 13.9975L9.29567 13.6277C9.71794 13.4165 10.215 13.4165 10.6373 13.6277L11.377 13.9975C11.6409 14.9967 12.551 15.7333 13.6331 15.7333C14.9218 15.7333 15.9665 14.6887 15.9665 13.4C15.9665 12.1113 14.9218 11.0667 13.6331 11.0667C12.5264 11.0667 11.5997 11.8372 11.36 12.871L11.0845 12.7333C10.3807 12.3813 9.55227 12.3813 8.8484 12.7333L8.57292 12.871C8.33329 11.8372 7.40653 11.0667 6.2998 11.0667C5.01114 11.0667 3.96647 12.1113 3.96647 13.4C3.96647 14.6887 5.01114 15.7333 6.2998 15.7333Z" fill="black"/>
</svg>
